/* XPM */
static char *idle_L_21710219860[] = {
/* columns rows colors chars-per-pixel */
"25 32 7 1 ",
"  c #222222",
". c #DC4A7B",
"X c #417089",
"o c #72D6CE",
"O c #F78697",
"+ c #FDF7ED",
"@ c #483B3A",
/* pixels */
"@@@@@@@@@@@@            @",
"@@@@@@@@@@@ OOOOOO...... ",
"@@@@@@@@@@@ OOOOOO...... ",
"@@@@@@@@@@ OOOO...      @",
"@@@@@@@@@@ OOOO...      @",
"@@@@@@@@@@ OOOO...      @",
"@@@@@@@@@@ OOO... @@@@@@@",
"@@@@@@@@@@@ ...  @@@@@@@@",
"@@@@                 @@@@",
"@@@@                 @@@@",
"@@@@  ++++oooooooo   @@@@",
"@     XXXXXXXXXooo   @@@@",
"@     XXXXXXXXXooo   @@@@",
"@  +++ooooooooXooo   @@@@",
"@  +XXooXXoXooXooo   @@@@",
"@  +XXooXXoXooXooo   @@@@",
"@  +XXooXXoXooXooo   @@@@",
"@  +XXooXXoXooXooo   @@@@",
"@  +XXooXXoXooXooo   @@@@",
"@  +++ooooooooXooo   @@@@",
"@  +++ooooooooXooo   @@@@",
"@     XXXXXXXXXooo   @@@@",
"@@@@  ++oooooooooo   @@@@",
"@@@@  ++oooooooooo   @@@@",
"@@@@  ooXXXXXXXXXX   @@@@",
"@@@@  ++oooooooooo   @@@@",
"@@@@  ++oooooooooo   @@@@",
"@@@@  ++oooooooooo   @@@@",
"@@@@  ++oooooooooo   @@@@",
"@@@@  XXXX     XXX   @@@@",
"@@@@  XXXX     XXX   @@@@",
"@@@@@@     @@@@      @@@@"
};
