/* XPM */
static char *idle_R_11710219862[] = {
/* columns rows colors chars-per-pixel */
"25 32 9 1 ",
"  c #222222",
". c #BB4E73",
"X c #DC4A7B",
"o c #417089",
"O c #C95C80",
"+ c #72D6CE",
"@ c #F78697",
"# c #FDF7ED",
"$ c #483B3A",
/* pixels */
"$$$          $$$$$$$$$$$$",
"$  OXXX@@@@@@ $$$$$$$$$$$",
"$  OXXX@@@@@@ $$$$$$$$$$$",
" ..    XXX@@@@ $$$$$$$$$$",
" ..    XXX@@@@ $$$$$$$$$$",
" ..    XXX@@@@ $$$$$$$$$$",
"$  $$$$ XXX@@@ $$$$$$$$$$",
"$$$$      XXX        $$$$",
"$$$$   ++++++++####  $$$$",
"$$$$   ++++++++####  $$$$",
"$$$$   +++ooooooooo     $",
"$$$$   +++o++++++++###  $",
"$$$$   +++o++++++++###  $",
"$$$$   +++o++o+oo++oo#  $",
"$$$$   +++o++o+oo++oo#  $",
"$$$$   +++o++o+oo++oo#  $",
"$$$$   +++o++o+oo++oo#  $",
"$$$$   +++o++o+oo++oo#  $",
"$$$$   +++o++++++++###  $",
"$$$$   +++ooooooooo     $",
"$$$$   +++ooooooooo     $",
"$$$$   ++++++++++##  $$$$",
"$$$$   oooooooooo++  $$$$",
"$$$$   oooooooooo++  $$$$",
"$$$$   ++++++++++##  $$$$",
"$$$$   ++++++++++##  $$$$",
"$$$$   ++++++++++##  $$$$",
"$$$$   ++++++++++##  $$$$",
"$$$$   ooo     oooo  $$$$",
"$$$$   o  $$$$ oo  $$$$$$",
"$$$$   o  $$$$ oo  $$$$$$",
"$$$$    $$$$$$   $$$$$$$$"
};
