/* XPM */
static char *idle_R_21710219862[] = {
/* columns rows colors chars-per-pixel */
"25 32 7 1 ",
"  c #222222",
". c #DC4A7B",
"X c #417089",
"o c #72D6CE",
"O c #F78697",
"+ c #FDF7ED",
"@ c #483B3A",
/* pixels */
"@            @@@@@@@@@@@@",
" ......OOOOOO @@@@@@@@@@@",
" ......OOOOOO @@@@@@@@@@@",
"@      ...OOOO @@@@@@@@@@",
"@      ...OOOO @@@@@@@@@@",
"@      ...OOOO @@@@@@@@@@",
"@@@@@@@ ...OOO @@@@@@@@@@",
"@@@@@@@@  ... @@@@@@@@@@@",
"@@@@                 @@@@",
"@@@@                 @@@@",
"@@@@   oooooooo++++  @@@@",
"@@@@   oooXXXXXXXXX     @",
"@@@@   oooXXXXXXXXX     @",
"@@@@   oooXoooooooo+++  @",
"@@@@   oooXooXoXXooXX+  @",
"@@@@   oooXooXoXXooXX+  @",
"@@@@   oooXooXoXXooXX+  @",
"@@@@   oooXooXoXXooXX+  @",
"@@@@   oooXooXoXXooXX+  @",
"@@@@   oooXoooooooo+++  @",
"@@@@   oooXoooooooo+++  @",
"@@@@   oooXXXXXXXXX     @",
"@@@@   oooooooooo++  @@@@",
"@@@@   oooooooooo++  @@@@",
"@@@@   XXXXXXXXXXoo  @@@@",
"@@@@   oooooooooo++  @@@@",
"@@@@   oooooooooo++  @@@@",
"@@@@   oooooooooo++  @@@@",
"@@@@   oooooooooo++  @@@@",
"@@@@   XXX     XXXX  @@@@",
"@@@@   XXX     XXXX  @@@@",
"@@@@      @@@@     @@@@@@"
};
