/* XPM */
static char *p_run_l_f01709893408[] = {
/* columns rows colors chars-per-pixel */
"16 28 7 1 ",
"  c None",
". c #222222",
"X c #DA4E38",
"o c #EE8E2E",
"O c #417089",
"+ c #72D6CE",
"@ c #FDF7ED",
/* pixels */
"                ",
"                ",
"                ",
"                ",
"                ",
"                ",
"                ",
"        ......  ",
"       .ooooXX. ",
"      .oooXX..X.",
"      .ooXX.  . ",
"   .....XX...   ",
"   .@@++++++.   ",
" ...OOOOOO++.   ",
" .@@+++++O++.   ",
" .@O+O+O+O++.   ",
" .@O+O+O+O++.   ",
" .@O+O+O+O++.   ",
" .@@+++++O++.   ",
" ...OOOOOO++.   ",
"   .@+++++++.   ",
"   .+OOOOOOO.   ",
"   .@+++++++.   ",
"   .@+++++++.   ",
"   .OO....OO.   ",
"   ...    .O.   ",
"           ..   ",
"                "
};
