/* XPM */
static char *p_run_f21709889550[] = {
/* columns rows colors chars-per-pixel */
"16 28 7 1 ",
"  c None",
". c #222222",
"X c #DA4E38",
"o c #EE8E2E",
"O c #417089",
"+ c #72D6CE",
"@ c #FDF7ED",
/* pixels */
"                ",
"                ",
"                ",
"                ",
"                ",
"                ",
" .......        ",
".XXXoooo.       ",
" ...XXooo.      ",
"    .XXoo.      ",
"     .XX.       ",
"   .........    ",
"   .++++++@@... ",
"   .++O+++++@@. ",
"   .++O+O+O+O@. ",
"   .++O+O+O+O@. ",
"   .++O+O+O+O@. ",
"   .++O+++++@@. ",
"   .++OOOOOO... ",
"   .++OOOOOO.   ",
"   .+++++++@.   ",
"   .OOOOOOO+.   ",
"   .+++++++@.   ",
"  ..+++++++@.   ",
" .OOOO....OO.   ",
" .....    .O.   ",
"           ..   ",
"                "
};
