/* XPM */
static char *imp_run_anim_f31709893407[] = {
/* columns rows colors chars-per-pixel */
"16 16 6 1 ",
"  c None",
". c #222222",
"X c #62232F",
"o c #5F2D56",
"O c #DA4E38",
"+ c #FDF7ED",
/* pixels */
"                ",
"                ",
"                ",
"  ..   ..       ",
"  .o.  .o.      ",
"  .o.  .o.      ",
"  .o....o...    ",
"  ..OOOOOOO.    ",
"   .+OO++OO.    ",
"   .+OO++OO.    ",
"   .XOOXXOO.    ",
"   .OOOOOOO.    ",
"   .OOOOOOO.    ",
"   ....oo...    ",
"      .o..      ",
"      ...       "
};
