/* XPM */
static char *_6c887b740214a10ac0f0a1dcbfe04a6iwhP1m4g2afqdem9[] = {
/* columns rows colors chars-per-pixel */
"16 16 13 1 ",
"  c #3A3A50",
". c #46465E",
"X c #555157",
"o c #5D585F",
"O c #565972",
"+ c #716B6E",
"@ c #6C6E85",
"# c #E19B9B",
"$ c #C9A495",
"% c #F6AE9F",
"& c #FFCBB0",
"* c #C2B8D5",
"= c white",
/* pixels */
"================",
"====OO......====",
"===O++++++oo.===",
"==O++++++++oo.==",
"==.++++++++oo.==",
"=.Xo++++++oooX.=",
"= XooooooooooX =",
"= XooooooooooX =",
"= Xo$&&&&&&$oX =",
"= Xo&&&&&&&&oX =",
"=.%$&&&&&&&&$%.=",
"=.&&& &&&& &&&.=",
"==.%&@#%%#@&%.==",
"==.%%%%%%%%%%.==",
"= O..........O.=",
"= @O O****O O@.="
};
